<mxfile host="app.diagrams.net" modified="2023-02-26T06:57:22.328Z" agent="5.0 (Windows NT 10.0; Win64; x64) AppleWebKit/537.36 (KHTML, like Gecko) Chrome/108.0.0.0 YaBrowser/23.1.3.949 Yowser/2.5 Safari/537.36" etag="Wtc7GJXzFj5w-thFEWEr" version="20.8.23" type="github">
  <diagram name="Страница 1" id="mh4aOyLbkz3jxuIJNKNL">
    <mxGraphModel dx="775" dy="440" grid="1" gridSize="10" guides="1" tooltips="1" connect="1" arrows="1" fold="1" page="1" pageScale="1" pageWidth="827" pageHeight="1169" math="0" shadow="0">
      <root>
        <mxCell id="0" />
        <mxCell id="1" parent="0" />
        <mxCell id="DwSnuwkQQs7i9CcLiAjb-1" value="&lt;b&gt;APP&lt;/b&gt;" style="rounded=0;whiteSpace=wrap;html=1;" vertex="1" parent="1">
          <mxGeometry x="400" y="50" width="120" height="30" as="geometry" />
        </mxCell>
        <mxCell id="DwSnuwkQQs7i9CcLiAjb-3" value="&lt;b&gt;BROWSERROUTER&lt;/b&gt;" style="rounded=0;whiteSpace=wrap;html=1;" vertex="1" parent="1">
          <mxGeometry x="400" y="100" width="120" height="30" as="geometry" />
        </mxCell>
        <mxCell id="DwSnuwkQQs7i9CcLiAjb-4" value="&lt;b&gt;PROFILE&lt;/b&gt;" style="rounded=0;whiteSpace=wrap;html=1;" vertex="1" parent="1">
          <mxGeometry x="150" y="180" width="120" height="30" as="geometry" />
        </mxCell>
        <mxCell id="DwSnuwkQQs7i9CcLiAjb-5" value="&lt;b&gt;DIALOGS&lt;/b&gt;" style="rounded=0;whiteSpace=wrap;html=1;" vertex="1" parent="1">
          <mxGeometry x="340" y="240" width="120" height="30" as="geometry" />
        </mxCell>
        <mxCell id="DwSnuwkQQs7i9CcLiAjb-6" value="&lt;b&gt;NAVBAR&lt;/b&gt;" style="rounded=0;whiteSpace=wrap;html=1;" vertex="1" parent="1">
          <mxGeometry x="500" y="300" width="120" height="30" as="geometry" />
        </mxCell>
      </root>
    </mxGraphModel>
  </diagram>
</mxfile>
